<svg width="679" height="508" viewBox="0 0 679 508" fill="none" xmlns="http://www.w3.org/2000/svg">
<path d="M179 332.756V311.905L261.09 347.106V370.395L179 332.756Z" fill="#9CA3AF"/>
<path d="M261.09 315.583V336.52L179 301.468V280.296L261.09 315.583Z" fill="#9CA3AF"/>
<path d="M179 248.538V269.945L261.09 304.997V283.354L179 248.538Z" fill="#9CA3AF"/>
<path d="M271.204 304.997V283.354L354 248.302V269.945L271.204 304.997Z" fill="#9CA3AF"/>
<path d="M271.204 336.52V315.583L354 280.296V301.468L271.204 336.52Z" fill="#9CA3AF"/>
<path d="M354 332.756V311.905L326.245 323.816L326.574 345.224L354 332.756Z" fill="#9CA3AF"/>
<path d="M271.204 347.106V370.395L298.889 357.81V335.344L271.204 347.106Z" fill="#9CA3AF"/>
<path d="M264.548 205.163L181.814 170.68L264.548 137.604L347.047 170.68L264.548 205.163Z" fill="#6366F1"/>
<path d="M261.09 250.993V271.907L179 236.893V215.744L261.09 250.993Z" fill="#D1D5DB"/>
<path d="M271.204 271.907V250.993L354 215.744V236.893L271.204 271.907Z" fill="#D1D5DB"/>
<path d="M179 183.419V204.626L261.09 239.349V217.909L179 183.419Z" fill="#6366F1"/>
<path d="M271.204 239.349V217.909L354 183.186V204.626L271.204 239.349Z" fill="#6366F1"/>
<path d="M392.651 175.5H397.925V168.032H400.631L404.615 175.5H410.368L405.84 167.19C408.237 166.104 409.622 163.962 409.622 160.947C409.622 156.462 406.565 153.682 401.664 153.682H392.651V175.5ZM397.925 163.877V157.933H400.524C402.889 157.933 404.157 158.923 404.157 160.947C404.157 162.972 402.889 163.877 400.524 163.877H397.925ZM419.091 175.809C423.385 175.809 426.208 173.732 426.805 170.514L422.021 170.376C421.616 171.462 420.551 172.048 419.187 172.048C417.184 172.048 415.949 170.717 415.949 168.714V168.575H426.858V167.276C426.858 161.885 423.577 158.923 418.932 158.923C413.988 158.923 410.814 162.311 410.814 167.382C410.814 172.624 413.946 175.809 419.091 175.809ZM415.949 165.55C416.023 163.92 417.312 162.684 419.038 162.684C420.753 162.684 421.989 163.877 422.01 165.55H415.949ZM443.055 164.133C442.778 160.894 440.125 158.923 435.693 158.923C431.261 158.923 428.438 160.852 428.46 164.133C428.438 166.647 430.047 168.266 433.317 168.874L436.173 169.417C437.526 169.683 438.143 170.109 438.165 170.834C438.143 171.654 437.227 172.197 435.896 172.197C434.415 172.197 433.413 171.558 433.19 170.365L428.044 170.493C428.417 173.732 431.197 175.809 435.874 175.809C440.253 175.809 443.438 173.625 443.46 170.259C443.438 167.872 441.862 166.455 438.602 165.827L435.448 165.23C434.063 164.953 433.616 164.463 433.626 163.835C433.616 163.004 434.585 162.492 435.789 162.492C437.163 162.492 438.122 163.227 438.271 164.261L443.055 164.133ZM445.274 175.5H450.484V159.136H445.274V175.5ZM447.884 157.229C449.365 157.229 450.558 156.111 450.558 154.737C450.558 153.362 449.365 152.254 447.884 152.254C446.414 152.254 445.21 153.362 445.21 154.737C445.21 156.111 446.414 157.229 447.884 157.229ZM459.026 175.734C461.498 175.734 462.968 174.36 463.629 172.847H463.788V175.5H468.945V153.682H463.735V161.938H463.629C463.011 160.436 461.583 158.923 459.005 158.923C455.585 158.923 452.485 161.555 452.485 167.329C452.485 172.901 455.415 175.734 459.026 175.734ZM460.837 171.675C458.909 171.675 457.833 169.96 457.833 167.318C457.833 164.687 458.898 162.993 460.837 162.993C462.744 162.993 463.852 164.644 463.852 167.318C463.852 169.971 462.734 171.675 460.837 171.675ZM479.138 175.809C483.432 175.809 486.255 173.732 486.851 170.514L482.068 170.376C481.663 171.462 480.598 172.048 479.234 172.048C477.231 172.048 475.996 170.717 475.996 168.714V168.575H486.905V167.276C486.905 161.885 483.623 158.923 478.979 158.923C474.035 158.923 470.861 162.311 470.861 167.382C470.861 172.624 473.993 175.809 479.138 175.809ZM475.996 165.55C476.07 163.92 477.359 162.684 479.085 162.684C480.8 162.684 482.036 163.877 482.057 165.55H475.996ZM494.025 166.168C494.036 164.303 495.122 163.195 496.773 163.195C498.425 163.195 499.405 164.282 499.394 166.093V175.5H504.604V165.07C504.614 161.384 502.366 158.923 498.925 158.923C496.507 158.923 494.675 160.148 493.95 162.141H493.769V159.136H488.815V175.5H494.025V166.168ZM516.316 159.136H513.365V155.216H508.155V159.136H505.992V162.972H508.155V170.93C508.123 174.243 510.275 175.905 513.95 175.734C515.208 175.67 516.113 175.415 516.614 175.266L515.825 171.505C515.602 171.558 515.08 171.665 514.686 171.665C513.844 171.665 513.365 171.324 513.365 170.354V162.972H516.316V159.136ZM518.224 175.5H523.433V159.136H518.224V175.5ZM520.834 157.229C522.314 157.229 523.508 156.111 523.508 154.737C523.508 153.362 522.314 152.254 520.834 152.254C519.363 152.254 518.16 153.362 518.16 154.737C518.16 156.111 519.363 157.229 520.834 157.229ZM530.612 175.777C532.892 175.777 534.468 174.893 535.363 173.22H535.491V175.5H540.392V164.378C540.392 160.915 537.313 158.923 533.147 158.923C528.748 158.923 526.255 161.139 525.839 164.122L530.644 164.293C530.868 163.249 531.73 162.609 533.105 162.609C534.383 162.609 535.193 163.227 535.193 164.325V164.378C535.193 165.379 534.106 165.592 531.315 165.837C528.002 166.114 525.232 167.339 525.232 170.962C525.232 174.2 527.48 175.777 530.612 175.777ZM532.221 172.368C531.017 172.368 530.164 171.793 530.164 170.706C530.164 169.651 530.995 169.012 532.476 168.788C533.446 168.65 534.639 168.437 535.225 168.128V169.683C535.225 171.281 533.882 172.368 532.221 172.368ZM548.037 153.682H542.827V175.5H548.037V153.682ZM412.456 193.587C411.923 188.366 408.035 185.384 402.761 185.384C396.945 185.384 392.417 189.379 392.417 196.591C392.417 203.771 396.838 207.798 402.761 207.798C408.749 207.798 412.062 203.729 412.456 199.862L407.129 199.83C406.756 201.928 405.18 203.175 402.868 203.175C399.757 203.175 397.797 200.927 397.797 196.591C397.797 192.425 399.714 190.007 402.9 190.007C405.297 190.007 406.863 191.403 407.129 193.587H412.456ZM419.336 207.777C421.616 207.777 423.193 206.893 424.088 205.22H424.216V207.5H429.116V196.378C429.116 192.915 426.037 190.923 421.872 190.923C417.472 190.923 414.979 193.139 414.564 196.122L419.368 196.293C419.592 195.249 420.455 194.609 421.829 194.609C423.108 194.609 423.917 195.227 423.917 196.325V196.378C423.917 197.379 422.831 197.592 420.04 197.837C416.726 198.114 413.956 199.339 413.956 202.962C413.956 206.2 416.204 207.777 419.336 207.777ZM420.945 204.368C419.741 204.368 418.889 203.793 418.889 202.706C418.889 201.651 419.72 201.012 421.201 200.788C422.17 200.65 423.363 200.437 423.949 200.128V201.683C423.949 203.281 422.607 204.368 420.945 204.368ZM431.552 213.636H436.761V204.847H436.868C437.528 206.36 438.998 207.734 441.47 207.734C445.092 207.734 448.011 204.901 448.011 199.329C448.011 193.555 444.922 190.923 441.502 190.923C438.913 190.923 437.496 192.436 436.868 193.938H436.708V191.136H431.552V213.636ZM436.655 199.318C436.655 196.644 437.763 194.993 439.67 194.993C441.598 194.993 442.663 196.687 442.663 199.318C442.663 201.96 441.598 203.675 439.67 203.675C437.763 203.675 436.655 201.971 436.655 199.318ZM449.991 207.5H455.201V191.136H449.991V207.5ZM452.601 189.229C454.082 189.229 455.275 188.111 455.275 186.737C455.275 185.362 454.082 184.254 452.601 184.254C451.131 184.254 449.927 185.362 449.927 186.737C449.927 188.111 451.131 189.229 452.601 189.229ZM467.003 191.136H464.052V187.216H458.843V191.136H456.68V194.972H458.843V202.93C458.811 206.243 460.963 207.905 464.638 207.734C465.895 207.67 466.801 207.415 467.301 207.266L466.513 203.505C466.289 203.558 465.767 203.665 465.373 203.665C464.531 203.665 464.052 203.324 464.052 202.354V194.972H467.003V191.136ZM473.524 207.777C475.804 207.777 477.381 206.893 478.275 205.22H478.403V207.5H483.304V196.378C483.304 192.915 480.225 190.923 476.059 190.923C471.66 190.923 469.167 193.139 468.751 196.122L473.556 196.293C473.78 195.249 474.643 194.609 476.017 194.609C477.295 194.609 478.105 195.227 478.105 196.325V196.378C478.105 197.379 477.018 197.592 474.227 197.837C470.914 198.114 468.144 199.339 468.144 202.962C468.144 206.2 470.392 207.777 473.524 207.777ZM475.133 204.368C473.929 204.368 473.077 203.793 473.077 202.706C473.077 201.651 473.907 201.012 475.388 200.788C476.358 200.65 477.551 200.437 478.137 200.128V201.683C478.137 203.281 476.795 204.368 475.133 204.368ZM490.949 185.682H485.739V207.5H490.949V185.682ZM511.003 192.223H516.053C516.01 188.143 512.761 185.384 507.69 185.384C502.704 185.384 499.114 188.1 499.146 192.159C499.135 195.472 501.458 197.337 505.229 198.2L507.509 198.732C509.906 199.286 510.982 199.936 511.003 201.161C510.982 202.493 509.735 203.42 507.615 203.42C505.282 203.42 503.748 202.333 503.631 200.234H498.581C498.645 205.337 502.193 207.777 507.679 207.777C513.113 207.777 516.33 205.316 516.351 201.172C516.33 197.688 513.975 195.558 509.672 194.609L507.797 194.183C505.815 193.757 504.558 193.097 504.6 191.797C504.611 190.604 505.634 189.741 507.679 189.741C509.735 189.741 510.865 190.668 511.003 192.223ZM527.501 191.136H524.55V187.216H519.341V191.136H517.178V194.972H519.341V202.93C519.309 206.243 521.461 207.905 525.136 207.734C526.393 207.67 527.299 207.415 527.799 207.266L527.011 203.505C526.787 203.558 526.265 203.665 525.871 203.665C525.029 203.665 524.55 203.324 524.55 202.354V194.972H527.501V191.136ZM534.022 207.777C536.302 207.777 537.879 206.893 538.773 205.22H538.901V207.5H543.802V196.378C543.802 192.915 540.723 190.923 536.558 190.923C532.158 190.923 529.665 193.139 529.249 196.122L534.054 196.293C534.278 195.249 535.141 194.609 536.515 194.609C537.793 194.609 538.603 195.227 538.603 196.325V196.378C538.603 197.379 537.516 197.592 534.725 197.837C531.412 198.114 528.642 199.339 528.642 202.962C528.642 206.2 530.89 207.777 534.022 207.777ZM535.631 204.368C534.427 204.368 533.575 203.793 533.575 202.706C533.575 201.651 534.406 201.012 535.886 200.788C536.856 200.65 538.049 200.437 538.635 200.128V201.683C538.635 203.281 537.293 204.368 535.631 204.368ZM553.876 207.809C558.478 207.809 561.333 205.135 561.472 201.087H556.603C556.411 202.823 555.367 203.771 553.94 203.771C552.107 203.771 550.914 202.227 550.914 199.318C550.914 196.431 552.118 194.886 553.94 194.886C555.431 194.886 556.401 195.898 556.603 197.571H561.472C561.354 193.544 558.414 190.923 553.865 190.923C548.719 190.923 545.609 194.354 545.609 199.371C545.609 204.368 548.698 207.809 553.876 207.809ZM563.388 207.5H568.597V202.589L569.652 201.31L573.551 207.5H579.57L573.53 198.263L579.336 191.136H573.434L568.831 196.996H568.597V185.682H563.388V207.5Z" fill="#111827"/>
<rect x="391" y="236.5" width="25" height="25" fill="#6366F1"/>
<path d="M445.119 255H452.778V253.494H447.54V253.409L449.852 250.989C451.983 248.835 452.591 247.807 452.591 246.506C452.591 244.636 451.068 243.205 448.875 243.205C446.699 243.205 445.108 244.614 445.108 246.739H446.784C446.778 245.489 447.585 244.67 448.841 244.67C450.023 244.67 450.92 245.398 450.92 246.557C450.92 247.585 450.307 248.324 449.057 249.648L445.119 253.727V255ZM458.983 255.193C461.67 255.193 463.244 253 463.244 249.188C463.244 245.403 461.648 243.205 458.983 243.205C456.312 243.205 454.722 245.398 454.716 249.188C454.716 252.994 456.29 255.188 458.983 255.193ZM458.983 253.676C457.409 253.676 456.46 252.097 456.46 249.188C456.466 246.29 457.415 244.693 458.983 244.693C460.545 244.693 461.5 246.29 461.5 249.188C461.5 252.097 460.551 253.676 458.983 253.676ZM471.334 252.818C471.339 254.131 472.163 255.239 473.703 255.239C475.226 255.239 476.061 254.131 476.061 252.818V252.205C476.061 250.886 475.249 249.784 473.703 249.784C472.186 249.784 471.339 250.892 471.334 252.205V252.818ZM465.482 246.159C465.482 247.472 466.311 248.58 467.851 248.58C469.368 248.58 470.209 247.477 470.203 246.159V245.545C470.209 244.227 469.391 243.125 467.851 243.125C466.339 243.125 465.482 244.227 465.482 245.545V246.159ZM465.959 255H467.317L475.317 243.364H473.959L465.959 255ZM472.658 252.205C472.663 251.551 472.947 250.92 473.703 250.92C474.487 250.92 474.732 251.551 474.732 252.205V252.818C474.732 253.472 474.464 254.102 473.703 254.102C472.93 254.102 472.663 253.466 472.658 252.818V252.205ZM466.811 245.545C466.811 244.898 467.095 244.261 467.851 244.261C468.635 244.261 468.879 244.892 468.879 245.545V246.159C468.879 246.812 468.612 247.443 467.851 247.443C467.078 247.443 466.811 246.812 466.811 246.159V245.545ZM482.33 244.875H485.955V255H487.705V244.875H491.335V243.364H482.33V244.875ZM495.599 255.176C498.06 255.176 499.668 253.375 499.668 250.676C499.668 247.96 498.06 246.159 495.599 246.159C493.139 246.159 491.531 247.96 491.531 250.676C491.531 253.375 493.139 255.176 495.599 255.176ZM495.605 253.75C493.997 253.75 493.247 252.347 493.247 250.67C493.247 249 493.997 247.58 495.605 247.58C497.202 247.58 497.952 249 497.952 250.67C497.952 252.347 497.202 253.75 495.605 253.75ZM501.564 255H503.263V251.903L504.109 251.057L507.075 255H509.161L505.388 250.017L508.922 246.273H506.888L503.411 249.966H503.263V243.364H501.564V255ZM513.872 255.176C515.776 255.176 517.122 254.239 517.509 252.818L515.901 252.528C515.594 253.352 514.855 253.773 513.889 253.773C512.435 253.773 511.457 252.83 511.412 251.148H517.616V250.545C517.616 247.392 515.73 246.159 513.753 246.159C511.321 246.159 509.719 248.011 509.719 250.693C509.719 253.403 511.298 255.176 513.872 255.176ZM511.418 249.875C511.486 248.636 512.384 247.562 513.764 247.562C515.082 247.562 515.946 248.54 515.952 249.875H511.418ZM521.2 249.818C521.2 248.426 522.053 247.631 523.234 247.631C524.388 247.631 525.087 248.386 525.087 249.653V255H526.786V249.449C526.786 247.29 525.598 246.159 523.814 246.159C522.501 246.159 521.643 246.767 521.24 247.693H521.132V246.273H519.501V255H521.2V249.818ZM529.064 255H530.763V246.273H529.064V255ZM529.922 244.926C530.507 244.926 530.996 244.472 530.996 243.915C530.996 243.358 530.507 242.898 529.922 242.898C529.331 242.898 528.848 243.358 528.848 243.915C528.848 244.472 529.331 244.926 529.922 244.926ZM532.866 255H539.872V253.523H535.168V253.443L539.713 247.511V246.273H533.02V247.75H537.594V247.83L532.866 253.835V255ZM544.416 255.193C545.859 255.193 546.672 254.46 546.996 253.807H547.064V255H548.723V249.205C548.723 246.665 546.723 246.159 545.337 246.159C543.757 246.159 542.303 246.795 541.734 248.386L543.331 248.75C543.581 248.131 544.217 247.534 545.359 247.534C546.456 247.534 547.018 248.108 547.018 249.097V249.136C547.018 249.756 546.382 249.744 544.814 249.926C543.161 250.119 541.467 250.551 541.467 252.534C541.467 254.25 542.757 255.193 544.416 255.193ZM544.786 253.83C543.825 253.83 543.132 253.398 543.132 252.557C543.132 251.648 543.939 251.324 544.922 251.193C545.473 251.119 546.78 250.972 547.024 250.727V251.852C547.024 252.886 546.2 253.83 544.786 253.83ZM555.06 246.273H553.27V244.182H551.571V246.273H550.293V247.636H551.571V252.79C551.565 254.375 552.776 255.142 554.116 255.114C554.656 255.108 555.02 255.006 555.219 254.932L554.912 253.528C554.798 253.551 554.588 253.602 554.315 253.602C553.764 253.602 553.27 253.42 553.27 252.438V247.636H555.06V246.273ZM556.939 255H558.638V246.273H556.939V255ZM557.797 244.926C558.382 244.926 558.871 244.472 558.871 243.915C558.871 243.358 558.382 242.898 557.797 242.898C557.206 242.898 556.723 243.358 556.723 243.915C556.723 244.472 557.206 244.926 557.797 244.926ZM564.599 255.176C567.06 255.176 568.668 253.375 568.668 250.676C568.668 247.96 567.06 246.159 564.599 246.159C562.139 246.159 560.531 247.96 560.531 250.676C560.531 253.375 562.139 255.176 564.599 255.176ZM564.605 253.75C562.997 253.75 562.247 252.347 562.247 250.67C562.247 249 562.997 247.58 564.605 247.58C566.202 247.58 566.952 249 566.952 250.67C566.952 252.347 566.202 253.75 564.605 253.75ZM572.263 249.818C572.263 248.426 573.115 247.631 574.297 247.631C575.45 247.631 576.149 248.386 576.149 249.653V255H577.848V249.449C577.848 247.29 576.661 246.159 574.876 246.159C573.564 246.159 572.706 246.767 572.303 247.693H572.195V246.273H570.564V255H572.263V249.818Z" fill="#111827"/>
<rect x="391" y="285.5" width="25" height="25" fill="#D1D5DB"/>
<path d="M445.119 304H452.778V302.494H447.54V302.409L449.852 299.989C451.983 297.835 452.591 296.807 452.591 295.506C452.591 293.636 451.068 292.205 448.875 292.205C446.699 292.205 445.108 293.614 445.108 295.739H446.784C446.778 294.489 447.585 293.67 448.841 293.67C450.023 293.67 450.92 294.398 450.92 295.557C450.92 296.585 450.307 297.324 449.057 298.648L445.119 302.727V304ZM458.983 304.193C461.67 304.193 463.244 302 463.244 298.188C463.244 294.403 461.648 292.205 458.983 292.205C456.312 292.205 454.722 294.398 454.716 298.188C454.716 301.994 456.29 304.188 458.983 304.193ZM458.983 302.676C457.409 302.676 456.46 301.097 456.46 298.188C456.466 295.29 457.415 293.693 458.983 293.693C460.545 293.693 461.5 295.29 461.5 298.188C461.5 301.097 460.551 302.676 458.983 302.676ZM471.334 301.818C471.339 303.131 472.163 304.239 473.703 304.239C475.226 304.239 476.061 303.131 476.061 301.818V301.205C476.061 299.886 475.249 298.784 473.703 298.784C472.186 298.784 471.339 299.892 471.334 301.205V301.818ZM465.482 295.159C465.482 296.472 466.311 297.58 467.851 297.58C469.368 297.58 470.209 296.477 470.203 295.159V294.545C470.209 293.227 469.391 292.125 467.851 292.125C466.339 292.125 465.482 293.227 465.482 294.545V295.159ZM465.959 304H467.317L475.317 292.364H473.959L465.959 304ZM472.658 301.205C472.663 300.551 472.947 299.92 473.703 299.92C474.487 299.92 474.732 300.551 474.732 301.205V301.818C474.732 302.472 474.464 303.102 473.703 303.102C472.93 303.102 472.663 302.466 472.658 301.818V301.205ZM466.811 294.545C466.811 293.898 467.095 293.261 467.851 293.261C468.635 293.261 468.879 293.892 468.879 294.545V295.159C468.879 295.812 468.612 296.443 467.851 296.443C467.078 296.443 466.811 295.812 466.811 295.159V294.545ZM482.903 304H490.267V302.489H484.659V298.926H489.818V297.42H484.659V293.875H490.199V292.364H482.903V304ZM499.999 307.273V295.273H498.339V296.688H498.197C497.896 296.148 497.311 295.159 495.692 295.159C493.584 295.159 492.027 296.824 492.027 299.653C492.027 302.477 493.561 304.17 495.675 304.17C497.266 304.17 497.891 303.199 498.197 302.642H498.3V307.273H499.999ZM498.334 299.636C498.334 301.472 497.516 302.722 496.055 302.722C494.538 302.722 493.743 301.386 493.743 299.636C493.743 297.903 494.516 296.602 496.055 296.602C497.538 296.602 498.334 297.812 498.334 299.636ZM507.811 300.381C507.817 301.864 506.714 302.568 505.76 302.568C504.709 302.568 503.982 301.807 503.982 300.619V295.273H502.283V300.824C502.283 302.989 503.47 304.114 505.146 304.114C506.459 304.114 507.351 303.42 507.754 302.489H507.845V304H509.516V295.273H507.811V300.381ZM511.798 304H513.497V295.273H511.798V304ZM512.656 293.926C513.241 293.926 513.73 293.472 513.73 292.915C513.73 292.358 513.241 291.898 512.656 291.898C512.065 291.898 511.582 292.358 511.582 292.915C511.582 293.472 512.065 293.926 512.656 293.926ZM519.857 295.273H518.067V293.182H516.368V295.273H515.089V296.636H516.368V301.79C516.362 303.375 517.572 304.142 518.913 304.114C519.453 304.108 519.817 304.006 520.016 303.932L519.709 302.528C519.595 302.551 519.385 302.602 519.112 302.602C518.561 302.602 518.067 302.42 518.067 301.438V296.636H519.857V295.273ZM522.81 307.273C524.213 307.273 525.099 306.54 525.605 305.165L529.213 295.29L527.378 295.273L525.168 302.045H525.077L522.866 295.273H521.048L524.241 304.114L524.031 304.693C523.599 305.852 522.991 305.949 522.06 305.693L521.651 307.085C521.855 307.176 522.298 307.273 522.81 307.273Z" fill="#111827"/>
<rect x="391" y="334.5" width="25" height="25" fill="#9CA3AF"/>
<path d="M449.182 353.159C451.614 353.182 453.227 351.432 453.222 349.199C453.227 346.972 451.608 345.375 449.591 345.375C448.364 345.375 447.301 345.966 446.705 346.949H446.619C446.625 344.307 447.625 342.739 449.33 342.739C450.449 342.739 451.153 343.42 451.392 344.386H453.125C452.858 342.545 451.409 341.205 449.33 341.205C446.625 341.205 444.938 343.528 444.938 347.574C444.932 351.858 447.114 353.142 449.182 353.159ZM449.176 351.682C447.824 351.682 446.835 350.545 446.835 349.239C446.841 347.938 447.875 346.801 449.216 346.801C450.545 346.801 451.523 347.875 451.517 349.222C451.523 350.597 450.506 351.682 449.176 351.682ZM459.342 353.193C462.03 353.193 463.604 351 463.604 347.188C463.604 343.403 462.007 341.205 459.342 341.205C456.672 341.205 455.081 343.398 455.075 347.188C455.075 350.994 456.649 353.188 459.342 353.193ZM459.342 351.676C457.768 351.676 456.82 350.097 456.82 347.188C456.825 344.29 457.774 342.693 459.342 342.693C460.905 342.693 461.859 344.29 461.859 347.188C461.859 350.097 460.911 351.676 459.342 351.676ZM471.693 350.818C471.699 352.131 472.523 353.239 474.062 353.239C475.585 353.239 476.42 352.131 476.42 350.818V350.205C476.42 348.886 475.608 347.784 474.062 347.784C472.545 347.784 471.699 348.892 471.693 350.205V350.818ZM465.841 344.159C465.841 345.472 466.67 346.58 468.21 346.58C469.727 346.58 470.568 345.477 470.562 344.159V343.545C470.568 342.227 469.75 341.125 468.21 341.125C466.699 341.125 465.841 342.227 465.841 343.545V344.159ZM466.318 353H467.676L475.676 341.364H474.318L466.318 353ZM473.017 350.205C473.023 349.551 473.307 348.92 474.062 348.92C474.847 348.92 475.091 349.551 475.091 350.205V350.818C475.091 351.472 474.824 352.102 474.062 352.102C473.29 352.102 473.023 351.466 473.017 350.818V350.205ZM467.17 343.545C467.17 342.898 467.455 342.261 468.21 342.261C468.994 342.261 469.239 342.892 469.239 343.545V344.159C469.239 344.812 468.972 345.443 468.21 345.443C467.438 345.443 467.17 344.812 467.17 344.159V343.545ZM487.03 353C490.575 353 492.626 350.801 492.626 347.165C492.626 343.545 490.575 341.364 487.149 341.364H483.263V353H487.03ZM485.018 351.466V342.898H487.041C489.587 342.898 490.899 344.42 490.899 347.165C490.899 349.92 489.587 351.466 486.933 351.466H485.018ZM498.435 353.176C500.338 353.176 501.685 352.239 502.071 350.818L500.463 350.528C500.156 351.352 499.418 351.773 498.452 351.773C496.997 351.773 496.02 350.83 495.974 349.148H502.179V348.545C502.179 345.392 500.293 344.159 498.315 344.159C495.884 344.159 494.281 346.011 494.281 348.693C494.281 351.403 495.861 353.176 498.435 353.176ZM495.98 347.875C496.048 346.636 496.946 345.562 498.327 345.562C499.645 345.562 500.509 346.54 500.514 347.875H495.98ZM504.2 353H505.859V351.642H506.001C506.308 352.199 506.933 353.17 508.524 353.17C510.638 353.17 512.172 351.477 512.172 348.653C512.172 345.824 510.615 344.159 508.507 344.159C506.888 344.159 506.303 345.148 506.001 345.688H505.899V341.364H504.2V353ZM505.865 348.636C505.865 346.812 506.661 345.602 508.143 345.602C509.683 345.602 510.456 346.903 510.456 348.636C510.456 350.386 509.661 351.722 508.143 351.722C506.683 351.722 505.865 350.472 505.865 348.636ZM518.153 344.273H516.364V342.182H514.665V344.273H513.386V345.636H514.665V350.79C514.659 352.375 515.869 353.142 517.21 353.114C517.75 353.108 518.114 353.006 518.312 352.932L518.006 351.528C517.892 351.551 517.682 351.602 517.409 351.602C516.858 351.602 516.364 351.42 516.364 350.438V345.636H518.153V344.273Z" fill="#111827"/>
</svg>
